# xmcd
#
# Track frame offsets:
#	150
#	57919
#	84805
#	117202
#	152311
#	181152
#	204539
#	240809
#	272213
#	298445
#
# Disc length: 4491 seconds
#
# Revision: 17
# Processed by: cddbd v1.5.2PL0 Copyright (c) Steve Scherf et al.
# Submitted via: EasyCDDAExtractor 10.2.0.1
#
DISCID=7e11890a
DTITLE=Eric Clapton - Blues [Disc 2]
DYEAR=1999
DGENRE=Blues
TTITLE0=Stormy Monday (Live)
TTITLE1=Worried Life Blues (Live)
TTITLE2=Early In The Morning (Live)
TTITLE3=Have You Ever Loved A Woman (Live)
TTITLE4=Wonderful Tonight (Live)
TTITLE5=Kind Hearted Woman (Live)
TTITLE6=Double Trouble (Live)
TTITLE7=Driftin  Blues (Live)
TTITLE8=Crossroads (Live)
TTITLE9=Further Up The Road (Live)
EXTD=
EXTT0=
EXTT1=
EXTT2=
EXTT3=
EXTT4=
EXTT5=
EXTT6=
EXTT7=
EXTT8=
EXTT9=
PLAYORDER=
